SplineFontDB: 3.0
FontName: Flinariengh
FullName: Flinariengh
FamilyName: Flinariengh
Weight: Regular
Copyright: Copyright 2020 Piano Nekomiya\n\nRoboto Mono\nCopyright 2015 The Roboto Mono Project Authors (https://github.com/googlefonts/robotomono)\n\nM+ 1c\nCopyright(c) 2017 M+ FONTS PROJECT
UComments: "2020-12-15: Created with FontForge (http://fontforge.org)"
Version: 1.000
ItalicAngle: 0
UnderlinePosition: -202.752
UnderlineWidth: 100.352
Ascent: 1638
Descent: 410
InvalidEm: 0
LayerCount: 2
Layer: 0 0 "+gMyXYgAA" 1
Layer: 1 0 "+Uk2XYgAA" 0
XUID: [1021 640 574012840 27010]
StyleMap: 0x0000
FSType: 0
OS2Version: 0
OS2_WeightWidthSlopeOnly: 0
OS2_UseTypoMetrics: 1
CreationTime: 1608030235
ModificationTime: 1608036159
PfmFamily: 33
TTFWeight: 400
TTFWidth: 5
LineGap: 184
VLineGap: 184
OS2TypoAscent: 0
OS2TypoAOffset: 1
OS2TypoDescent: 0
OS2TypoDOffset: 1
OS2TypoLinegap: 184
OS2WinAscent: 0
OS2WinAOffset: 1
OS2WinDescent: 0
OS2WinDOffset: 1
HheadAscent: 0
HheadAOffset: 1
HheadDescent: 0
HheadDOffset: 1
OS2FamilyClass: 2054
OS2Vendor: 'PfEd'
MarkAttachClasses: 1
DEI: 91125
LangName: 1033 "" "" "" "" "" "" "" "" "" "" "" "" "" "Licensed under the Apache License, Version 2.0" "http://www.apache.org/licenses/LICENSE-2.0"
Encoding: UnicodeFull
UnicodeInterp: none
NameList: AGL For New Fonts
DisplaySize: -72
AntiAlias: 1
FitToEm: 0
WinInfo: 0 18 7
BeginPrivate: 0
EndPrivate
BeginChars: 1114112 105

StartChar: exclam
Encoding: 33 33 1
Width: 1228
Flags: W
HStem: -10 219<505.351 695.927>
VStem: 485 232<8.86603 188.195>
LayerCount: 2
Fore
SplineSet
690 471 m 1
 690 1456 l 1
 504 1456 l 1
 504 471 l 1
 690 471 l 1
600 209 m 256
 528 209 485 164 485 96 c 0
 485 30 530 -10 600 -10 c 256
 670 -10 717 30 717 96 c 0
 717 164 672 209 600 209 c 256
EndSplineSet
EndChar

StartChar: quotedbl
Encoding: 34 34 2
Width: 1228
Flags: W
HStem: 1057 479
VStem: 354 152<1196.38 1427> 354 129<1057 1287.62> 713 149<1161.78 1427> 713 129<1057 1322.22>
LayerCount: 2
Fore
SplineSet
506 1427 m 1xc0
 506 1536 l 1xc0
 354 1536 l 1xa0
 354 1411 l 1xc0
 354 1057 l 1
 483 1057 l 1xa0
 506 1427 l 1xc0
862 1427 m 1x90
 862 1536 l 1x90
 713 1536 l 1x88
 713 1411 l 1x90
 713 1057 l 1
 842 1057 l 1x88
 862 1427 l 1x90
EndSplineSet
EndChar

StartChar: numbersign
Encoding: 35 35 3
Width: 1228
Flags: W
LayerCount: 2
Fore
SplineSet
707 410 m 1
 627 0 l 1
 770 0 l 1
 850 410 l 1
 1102 410 l 1
 1102 547 l 1
 877 547 l 1
 944 901 l 1
 1178 901 l 1
 1178 1040 l 1
 973 1040 l 1
 1055 1456 l 1
 911 1456 l 1
 829 1040 l 1
 565 1040 l 1
 647 1456 l 1
 504 1456 l 1
 422 1040 l 1
 137 1040 l 1
 137 901 l 1
 395 901 l 1
 326 547 l 1
 61 547 l 1
 61 410 l 1
 299 410 l 1
 219 0 l 1
 362 0 l 1
 442 410 l 1
 707 410 l 1
469 547 m 1
 539 901 l 1
 803 901 l 1
 733 547 l 1
 469 547 l 1
EndSplineSet
EndChar

StartChar: dollar
Encoding: 36 36 4
Width: 1228
Flags: W
HStem: -16 155<461.634 559 709 802.496> 1315 158<489.45 575 725 788.216>
VStem: 162 184<257.311 428> 217 186<946.255 1230.89> 897 182<1008 1197.73> 907 187<233.192 503.733>
LayerCount: 2
Fore
SplineSet
1079 1008 m 1xd8
 1077 1274 961 1440 725 1473 c 1
 725 1692 l 1
 575 1692 l 1
 575 1473 l 1
 409 1453 295 1366 244 1231 c 0
 228 1186 217 1134 217 1079 c 0xd8
 217 952 262 866 330 803 c 0
 404 729 510 680 627 643 c 0
 740 606 850 559 891 459 c 0
 901 434 907 406 907 375 c 0
 907 215 789 139 627 139 c 0
 447 139 346 244 346 428 c 1
 162 428 l 1
 162 156 315 9 559 -16 c 1
 559 -209 l 1
 709 -209 l 1
 709 -16 l 1
 885 2 1010 82 1065 221 c 0
 1083 266 1094 320 1094 377 c 0xe4
 1094 647 897 741 690 809 c 0
 602 838 524 871 469 922 c 0
 426 961 403 1005 403 1081 c 0
 403 1233 495 1315 649 1315 c 0
 819 1315 897 1178 897 1008 c 1
 1079 1008 l 1xd8
EndSplineSet
EndChar

StartChar: percent
Encoding: 37 37 5
Width: 1228
Flags: W
HStem: -20 118<816.731 1009.44> 500 121<816.294 1009.42> 836 120<216.037 408.756> 1356 121<214.814 408.804>
VStem: 43 139<988.488 1116 1194 1321.43> 442 138<987.894 1116 1194 1322.14> 645 137<132.488 260 338 464.445> 1042 140<133.657 260 338 466.145>
LayerCount: 2
Fore
SplineSet
43 1194 m 2
 43 1116 l 2
 43 987 107 899 197 858 c 0
 230 844 270 836 313 836 c 256
 446 836 528 910 563 1010 c 0
 575 1045 580 1077 580 1116 c 2
 580 1194 l 2
 580 1323 520 1413 428 1454 c 0
 395 1468 354 1477 311 1477 c 0
 176 1477 96 1403 61 1303 c 0
 49 1268 43 1233 43 1194 c 2
313 956 m 0
 223 956 182 1026 182 1116 c 2
 182 1194 l 2
 182 1284 221 1356 311 1356 c 0
 403 1356 442 1284 442 1194 c 2
 442 1116 l 2
 442 1028 403 956 313 956 c 0
645 338 m 2
 645 260 l 2
 645 131 709 43 799 2 c 0
 832 -12 872 -20 915 -20 c 0
 1083 -20 1182 94 1182 260 c 2
 1182 338 l 2
 1182 467 1118 557 1028 598 c 0
 995 612 956 621 913 621 c 0
 780 621 697 546 662 446 c 0
 650 411 645 377 645 338 c 2
915 98 m 0
 825 98 782 170 782 260 c 2
 782 338 l 2
 782 428 821 500 913 500 c 0
 1005 500 1042 428 1042 338 c 2
 1042 260 l 2
 1042 170 1005 98 915 98 c 0
397 188 m 1
 965 1225 l 1
 854 1286 l 1
 287 250 l 1
 397 188 l 1
EndSplineSet
EndChar

StartChar: ampersand
Encoding: 38 38 6
Width: 1228
Flags: W
HStem: -20 149<385.117 716.91> 1325 152<476.717 694.58>
VStem: 106 187<220.464 515.098> 233 187<968.096 1268.21> 733 172<1034.7 1286.72> 987 168<440.462 672>
LayerCount: 2
Fore
SplineSet
594 1477 m 0xec
 369 1477 233 1351 233 1126 c 0xdc
 233 1022 270 949 313 881 c 0
 333 850 356 817 381 784 c 1
 344 760 l 1
 252 690 168 615 127 498 c 0
 113 459 106 418 106 373 c 0
 106 180 215 61 360 8 c 0
 413 -12 473 -20 539 -20 c 0
 693 -20 805 39 889 111 c 1
 973 0 l 1
 1194 0 l 1
 1012 238 l 1
 1098 347 1155 488 1155 672 c 1
 987 672 l 1
 985 549 956 451 911 369 c 1
 604 770 l 1
 698 852 l 1
 776 911 854 971 889 1071 c 0
 899 1100 905 1132 905 1167 c 0
 905 1310 825 1407 723 1452 c 0
 684 1468 641 1477 594 1477 c 0xec
799 229 m 1
 736 176 654 129 539 129 c 0
 387 129 293 223 293 373 c 0xec
 293 451 328 508 367 557 c 0
 387 584 416 610 449 637 c 2
 475 662 l 1
 799 229 l 1
594 1325 m 0
 682 1325 733 1253 733 1167 c 0
 733 1075 690 1022 633 983 c 1
 514 891 l 1
 469 957 420 1026 420 1128 c 0xdc
 420 1241 481 1325 594 1325 c 0
EndSplineSet
EndChar

StartChar: quotesingle
Encoding: 39 39 7
Width: 1228
Flags: W
HStem: 1057 479
VStem: 494 139<1057 1320.78> 496 157<1161.22 1425>
LayerCount: 2
Fore
SplineSet
653 1425 m 1xa0
 653 1536 l 1
 496 1536 l 1
 496 1409 l 1xa0
 494 1057 l 1
 633 1057 l 1xc0
 653 1425 l 1xa0
EndSplineSet
EndChar

StartChar: parenleft
Encoding: 40 40 8
Width: 1228
Flags: W
VStem: 356 187<204.043 582 592 966.97>
LayerCount: 2
Fore
SplineSet
356 592 m 2
 356 582 l 2
 356 215 467 -69 631 -274 c 0
 692 -354 764 -424 846 -469 c 1
 885 -356 l 1
 742 -241 651 -62 594 143 c 0
 561 270 543 418 543 580 c 2
 543 594 l 2
 543 930 621 1191 758 1386 c 0
 795 1437 838 1487 885 1522 c 1
 846 1642 l 1
 711 1566 608 1431 528 1290 c 0
 426 1108 356 877 356 592 c 2
EndSplineSet
EndChar

StartChar: parenright
Encoding: 41 41 9
Width: 1228
Flags: W
VStem: 664 186<212.879 582 592 960.311>
LayerCount: 2
Fore
SplineSet
850 582 m 2
 850 592 l 2
 850 791 815 949 766 1094 c 0
 719 1233 655 1348 575 1448 c 0
 514 1526 440 1597 358 1642 c 1
 319 1530 l 1
 415 1452 482 1348 541 1223 c 0
 619 1057 664 846 664 594 c 2
 664 580 l 2
 664 273 598 31 487 -164 c 0
 442 -240 385 -309 319 -356 c 1
 358 -469 l 1
 493 -393 598 -260 678 -117 c 0
 780 65 850 299 850 582 c 2
EndSplineSet
EndChar

StartChar: asterisk
Encoding: 42 42 10
Width: 1228
Flags: W
LayerCount: 2
Fore
SplineSet
537 915 m 1
 276 588 l 1
 422 481 l 1
 635 836 l 1
 848 473 l 1
 993 584 l 1
 737 907 l 1
 1120 1001 l 1
 1067 1180 l 1
 702 1028 l 1
 731 1456 l 1
 555 1456 l 1
 580 1034 l 1
 213 1186 l 1
 160 1012 l 1
 537 915 l 1
EndSplineSet
EndChar

StartChar: plus
Encoding: 43 43 11
Width: 1228
Flags: W
LayerCount: 2
Fore
SplineSet
711 780 m 1
 711 1206 l 1
 524 1206 l 1
 524 780 l 1
 119 780 l 1
 119 598 l 1
 524 598 l 1
 524 145 l 1
 711 145 l 1
 711 598 l 1
 1116 598 l 1
 1116 780 l 1
 711 780 l 1
EndSplineSet
EndChar

StartChar: comma
Encoding: 44 44 12
Width: 1228
Flags: W
VStem: 442 201<-156.168 43>
LayerCount: 2
Fore
SplineSet
469 -336 m 1
 559 -256 643 -113 643 43 c 2
 643 219 l 1
 442 219 l 1
 442 41 l 2
 442 -88 411 -188 354 -272 c 1
 469 -336 l 1
EndSplineSet
EndChar

StartChar: hyphen
Encoding: 45 45 13
Width: 1228
Flags: W
HStem: 561 152
LayerCount: 2
Fore
SplineSet
983 561 m 1
 983 713 l 1
 217 713 l 1
 217 561 l 1
 983 561 l 1
EndSplineSet
EndChar

StartChar: period
Encoding: 46 46 14
Width: 1228
Flags: W
HStem: -18 280<530.895 752.198>
VStem: 496 292<17.7574 228.217>
LayerCount: 2
Fore
SplineSet
641 262 m 0
 551 262 496 207 496 121 c 0
 496 37 553 -18 641 -18 c 0
 729 -18 788 37 788 121 c 0
 788 207 731 262 641 262 c 0
EndSplineSet
EndChar

StartChar: slash
Encoding: 47 47 15
Width: 1228
Flags: W
LayerCount: 2
Fore
SplineSet
418 -125 m 1
 1024 1456 l 1
 860 1456 l 1
 252 -125 l 1
 418 -125 l 1
EndSplineSet
EndChar

StartChar: zero
Encoding: 48 48 16
Width: 1228
Flags: W
HStem: -20 149<457.151 774.255> 1325 152<459.982 778.281>
VStem: 145 187<897 1180> 901 186<275.148 557>
LayerCount: 2
Fore
SplineSet
1087 557 m 2
 1087 897 l 2
 1087 1163 999 1356 815 1438 c 0
 756 1463 690 1477 616 1477 c 0
 370 1477 233 1338 176 1145 c 0
 156 1073 145 989 145 897 c 2
 145 557 l 2
 145 291 236 96 420 18 c 0
 479 -7 544 -20 618 -20 c 0
 866 -20 1000 116 1057 311 c 0
 1077 383 1087 465 1087 557 c 2
332 938 m 4
 332 1159 397 1325 616 1325 c 0
 806 1325 879 1200 897 1028 c 1
 332 594 l 1
 332 709 332 823 332 938 c 4
901 518 m 0
 901 297 837 129 618 129 c 0
 432 129 356 252 336 420 c 1
 901 852 l 1
 901 741 901 629 901 518 c 0
EndSplineSet
EndChar

StartChar: one
Encoding: 49 49 17
Width: 1228
Flags: W
VStem: 209 565
LayerCount: 2
Fore
SplineSet
774 0 m 1
 774 1456 l 1
 760 1456 l 1
 209 1243 l 1
 209 1075 l 1
 590 1221 l 1
 590 0 l 1
 774 0 l 1
EndSplineSet
EndChar

StartChar: two
Encoding: 50 50 18
Width: 1228
Flags: W
HStem: 1323 154<383.765 711.397>
VStem: 86 184<1026 1207.56> 813 186<896.014 1220.01>
LayerCount: 2
Fore
SplineSet
270 1026 m 1
 270 1214 367 1323 557 1323 c 0
 713 1323 813 1221 813 1065 c 0
 813 993 795 944 766 891 c 0
 719 807 662 742 590 664 c 2
 113 133 l 1
 113 0 l 1
 1067 0 l 1
 1067 152 l 1
 336 152 l 1
 727 575 l 2
 825 681 928 794 979 944 c 0
 993 987 999 1028 999 1071 c 0
 999 1268 890 1391 743 1446 c 0
 688 1466 625 1477 557 1477 c 0
 332 1477 180 1362 117 1200 c 0
 97 1145 86 1087 86 1026 c 1
 270 1026 l 1
EndSplineSet
EndChar

StartChar: three
Encoding: 51 51 19
Width: 1228
VWidth: 999
Flags: W
HStem: -10 160<380.573 719.841> 711 137<610 732.66> 1290 160<170 772>
VStem: 850 201<278.751 605.592>
LayerCount: 2
Fore
SplineSet
614 848 m 1
 618 848 l 1
 657 848 l 2
 778 848 874 814 944 748 c 0
 1014 682 1051 588 1051 461 c 0
 1051 311 1005 195 915 113 c 0
 825 31 701 -10 543 -10 c 0
 412 -10 268 59 172 139 c 5
 172 322 l 1
 223 297 286 230 352 205 c 4
 442 170 492 150 543 150 c 0
 639 150 715 178 768 231 c 0
 823 286 850 363 850 461 c 0
 850 545 821 608 762 649 c 0
 705 690 612 711 487 711 c 2
 360 711 l 1
 360 864 l 1
 768 1270 l 1
 770 1270 l 1
 772 1272 l 1
 772 1274 l 1
 772 1276 l 1
 772 1280 l 1
 772 1284 l 1
 772 1290 l 1
 768 1290 l 1
 762 1290 l 1
 170 1290 l 1
 170 1450 l 1
 1030 1450 l 1
 1030 1284 l 1
 612 868 l 1
 610 866 l 1
 610 864 l 1
 610 862 l 1
 610 858 l 1
 610 854 l 1
 610 848 l 1
 614 848 l 1
EndSplineSet
EndChar

StartChar: four
Encoding: 52 52 20
Width: 1228
Flags: W
LayerCount: 2
Fore
SplineSet
924 489 m 1
 924 1456 l 1
 727 1456 l 1
 76 446 l 1
 76 338 l 1
 739 338 l 1
 739 0 l 1
 924 0 l 1
 924 338 l 1
 1126 338 l 1
 1126 489 l 1
 924 489 l 1
281 489 m 1
 709 1153 l 1
 739 1210 l 1
 739 489 l 1
 281 489 l 1
EndSplineSet
EndChar

StartChar: five
Encoding: 53 53 21
Width: 1228
Flags: W
HStem: -20 151<480.574 797.909> 784 166<460.058 787.891>
VStem: 186 176<255.541 383> 918 186<262.714 646.276>
LayerCount: 2
Fore
SplineSet
645 131 m 0
 477 131 382 229 362 383 c 1
 186 383 l 1
 206 186 313 55 477 4 c 0
 530 -12 586 -20 645 -20 c 0
 944 -20 1104 168 1104 465 c 0
 1104 692 1010 845 852 915 c 0
 799 938 738 950 670 950 c 0
 570 950 489 924 428 889 c 1
 469 1276 l 1
 1061 1276 l 1
 1061 1456 l 1
 313 1456 l 1
 240 729 l 1
 387 692 l 1
 448 747 510 784 627 784 c 0
 774 784 862 703 899 590 c 0
 911 551 918 508 918 463 c 0
 918 273 833 131 645 131 c 0
EndSplineSet
EndChar

StartChar: six
Encoding: 54 54 22
Width: 1228
Flags: W
HStem: -20 153<474.81 756.137> 801 153<459.448 757.383> 1290 166<604.383 840>
VStem: 141 187<310.188 539 596 677.21> 879 182<265.888 664.074>
LayerCount: 2
Fore
SplineSet
330 809 m 1
 348 1108 518 1290 840 1290 c 2
 856 1290 l 1
 856 1456 l 1
 840 1456 l 2
 625 1456 463 1395 352 1284 c 0
 268 1200 213 1100 184 983 c 0
 155 866 141 746 141 625 c 2
 141 539 l 2
 141 295 250 111 414 25 c 0
 471 -6 536 -20 610 -20 c 0
 839 -20 977 109 1032 283 c 0
 1050 342 1061 407 1061 475 c 0
 1061 686 972 839 831 913 c 0
 778 940 715 954 643 954 c 0
 500 954 396 889 330 809 c 1
614 801 m 0
 796 801 879 647 879 467 c 0
 879 317 825 207 725 158 c 0
 692 142 653 133 610 133 c 0
 520 133 457 181 414 238 c 256
 361 308 328 407 328 532 c 2
 328 596 l 1
 361 686 430 755 522 786 c 0
 551 796 583 801 614 801 c 0
EndSplineSet
EndChar

StartChar: seven
Encoding: 55 55 23
Width: 1228
Flags: W
LayerCount: 2
Fore
SplineSet
1096 1352 m 1
 1096 1456 l 1
 113 1456 l 1
 113 1294 l 1
 899 1294 l 1
 299 0 l 1
 494 0 l 1
 1096 1352 l 1
EndSplineSet
EndChar

StartChar: eight
Encoding: 56 56 24
Width: 1228
Flags: W
HStem: -20 151<469.362 809.307> 674 151<491.796 787.559> 1323 154<492.976 786.971>
VStem: 176 186<236.616 559.625> 211 186<919.04 1229.77> 885 184<919.482 1219.23> 918 186<237.753 553.082>
LayerCount: 2
Fore
SplineSet
856 750 m 1xf2
 971 807 1067 909 1069 1075 c 0
 1069 1276 959 1399 809 1450 c 0
 756 1468 700 1477 639 1477 c 0
 440 1477 305 1386 244 1245 c 0
 224 1196 211 1138 211 1075 c 0xec
 211 907 309 807 422 750 c 1
 289 693 176 579 176 393 c 0
 176 184 299 57 459 6 c 0
 516 -12 575 -20 641 -20 c 0
 850 -20 999 72 1067 217 c 0
 1092 268 1104 327 1104 393 c 0
 1104 579 989 693 856 750 c 1xf2
641 131 m 0
 469 131 362 225 362 397 c 0
 362 567 469 674 639 674 c 0
 772 674 858 606 897 510 c 0
 911 475 918 438 918 397 c 0xf2
 918 229 809 131 641 131 c 0
885 1073 m 0xec
 885 923 789 825 639 825 c 0
 489 825 397 923 397 1073 c 256
 397 1225 489 1323 639 1323 c 256
 758 1323 831 1260 866 1174 c 0
 878 1143 885 1110 885 1073 c 0xec
EndSplineSet
EndChar

StartChar: nine
Encoding: 57 57 25
Width: 1228
Flags: W
HStem: 0 164<373 624.399> 487 152<452.44 742.843> 1323 154<460.008 732.156>
VStem: 150 182<774.765 1184.45> 881 184<450.77 633 768.569 852 887 1145.86>
LayerCount: 2
Fore
SplineSet
563 487 m 0
 713 487 813 549 879 633 c 1
 879 631 l 1
 863 324 707 164 373 164 c 2
 354 164 l 1
 354 0 l 1
 373 0 l 2
 598 0 772 63 874 178 c 0
 952 266 1003 368 1028 481 c 0
 1053 594 1065 706 1065 819 c 2
 1065 887 l 2
 1065 1057 1014 1229 934 1325 c 0
 862 1411 756 1477 600 1477 c 256
 369 1477 233 1343 178 1167 c 0
 160 1106 150 1041 150 973 c 0
 150 762 238 606 377 530 c 0
 430 501 491 487 563 487 c 0
594 639 m 0
 414 639 332 801 332 981 c 0
 332 1131 385 1245 485 1296 c 0
 518 1314 557 1323 600 1323 c 0
 690 1323 756 1271 799 1214 c 0
 850 1142 881 1038 881 911 c 2
 881 852 l 1
 848 760 778 688 686 655 c 0
 657 645 625 639 594 639 c 0
EndSplineSet
EndChar

StartChar: less
Encoding: 60 60 28
Width: 1228
Flags: W
LayerCount: 2
Fore
SplineSet
1018 197 m 1
 1018 391 l 1
 406 629 l 1
 352 645 l 1
 579 725 795 817 1018 903 c 1
 1018 1100 l 1
 170 721 l 1
 170 575 l 1
 1018 197 l 1
EndSplineSet
EndChar

StartChar: equal
Encoding: 61 61 29
Width: 1228
Flags: W
LayerCount: 2
Fore
SplineSet
1067 780 m 1
 1067 940 l 1
 172 940 l 1
 172 780 l 1
 1067 780 l 1
1067 365 m 1
 1067 524 l 1
 172 524 l 1
 172 365 l 1
 1067 365 l 1
EndSplineSet
EndChar

StartChar: greater
Encoding: 62 62 30
Width: 1228
Flags: W
LayerCount: 2
Fore
SplineSet
178 197 m 1
 1061 575 l 1
 1061 723 l 1
 178 1100 l 1
 178 909 l 1
 825 670 l 1
 885 649 l 1
 825 633 l 1
 178 389 l 1
 178 197 l 1
EndSplineSet
EndChar

StartChar: question
Encoding: 63 63 31
Width: 1228
Flags: W
HStem: -10 219<509.351 699.927> 1315 162<458.2 788.642>
VStem: 190 187<1116 1239.17> 489 232<8.86603 188.195> 512 184<410 600.125> 866 185<946.266 1237.72>
LayerCount: 2
Fore
SplineSet
623 1315 m 0xec
 775 1315 866 1244 866 1092 c 0
 866 1018 834 958 799 911 c 0
 760 858 709 809 664 762 c 0
 590 694 528 647 516 528 c 0
 512 497 512 457 512 410 c 1
 696 410 l 1
 696 529 717 586 778 645 c 0
 874 731 975 830 1026 961 c 0
 1042 1004 1051 1051 1051 1098 c 0
 1051 1354 879 1477 623 1477 c 0
 430 1477 291 1397 225 1268 c 0
 202 1223 190 1171 190 1116 c 1
 377 1116 l 1
 377 1253 488 1315 623 1315 c 0xec
604 209 m 256
 532 209 489 164 489 96 c 0
 489 30 534 -10 604 -10 c 256
 674 -10 721 30 721 96 c 0xf4
 721 164 676 209 604 209 c 256
EndSplineSet
EndChar

StartChar: at
Encoding: 64 64 32
Width: 1228
Flags: W
HStem: -8 127<412.422 811.278> 319 140<489.883 655.78> 319 113<835.368 975.83> 1032 123<576.899 754.059> 1331 127<477.382 843.55>
LayerCount: 2
Fore
SplineSet
725 440 m 1xd8
 745 370 793 319 883 319 c 0
 992 319 1053 395 1092 473 c 0
 1164 625 1177 877 1130 1063 c 0
 1089 1223 1005 1345 874 1411 c 0
 811 1442 739 1458 657 1458 c 0
 469 1458 338 1358 250 1243 c 0
 109 1059 22 721 94 410 c 0
 151 162 311 -8 614 -8 c 0
 720 -8 816 21 877 68 c 1
 846 184 l 1
 791 145 708 119 616 119 c 0
 294 119 178 356 190 690 c 0
 198 966 297 1188 479 1288 c 0
 532 1317 592 1331 655 1331 c 0
 872 1331 985 1196 1028 1018 c 0
 1071 844 1059 557 963 461 c 0
 945 443 922 432 897 432 c 0xb8
 831 432 823 491 827 563 c 2
 870 1067 l 1
 835 1116 776 1155 690 1155 c 0
 581 1155 506 1096 457 1026 c 0
 394 938 358 815 346 674 c 0
 336 533 358 403 438 346 c 0
 463 328 491 319 524 319 c 0
 624 319 684 377 725 440 c 1xd8
557 459 m 0xd8
 428 459 471 733 494 823 c 0
 521 929 569 1032 696 1032 c 0
 719 1032 740 1028 756 1020 c 1
 717 586 l 1
 717 575 l 1
 688 514 643 459 557 459 c 0xd8
EndSplineSet
EndChar

StartChar: A
Encoding: 65 65 33
Width: 1228
Flags: W
LayerCount: 2
Fore
SplineSet
868 377 m 1
 983 0 l 1
 1167 0 l 1
 707 1456 l 1
 551 1456 l 1
 82 0 l 1
 266 0 l 1
 383 377 l 1
 868 377 l 1
432 539 m 1
 629 1169 l 1
 819 539 l 1
 432 539 l 1
EndSplineSet
EndChar

StartChar: B
Encoding: 66 66 34
Width: 1228
Flags: W
HStem: 0 158<639 810.971> 682 154<616 784.176> 1298 158<604 791.535>
VStem: 895 184<939.979 1206.16> 932 186<272.394 567.875>
LayerCount: 2
Fore
SplineSet
172 0 m 1xf0
 639 0 l 1
 850 2 1005 97 1079 240 c 0xf0
 1106 291 1118 352 1118 420 c 0xe8
 1118 565 1051 658 961 717 c 0
 926 740 891 756 854 764 c 1
 854 768 l 1
 973 819 1077 901 1079 1067 c 0
 1081 1276 946 1389 780 1432 c 0
 723 1446 663 1456 604 1456 c 2
 172 1456 l 1
 172 0 l 1xf0
358 682 m 1
 653 682 l 1
 780 678 870 620 911 528 c 0
 925 495 932 459 932 418 c 0xe8
 932 287 852 211 754 176 c 0
 719 164 682 158 643 158 c 2
 358 158 l 1
 358 682 l 1
610 1298 m 1
 768 1296 895 1229 895 1069 c 0xf0
 895 917 763 838 616 836 c 1
 358 836 l 1
 358 1298 l 1
 610 1298 l 1
EndSplineSet
EndChar

StartChar: C
Encoding: 67 67 35
Width: 1228
Flags: W
HStem: -20 149<463.07 789.3> 1325 152<470.849 787.189>
VStem: 106 187<348.739 627 829 1099.9> 932 184<289.23 438 1010 1157.8>
LayerCount: 2
Fore
SplineSet
625 1325 m 0
 824 1325 907 1184 932 1010 c 1
 1116 1010 l 1
 1091 1223 991 1374 819 1442 c 0
 762 1465 697 1477 625 1477 c 0
 371 1477 234 1327 164 1141 c 0
 129 1053 108 946 106 829 c 1
 106 627 l 1
 110 320 230 86 461 6 c 0
 510 -10 566 -20 625 -20 c 0
 850 -20 993 94 1065 252 c 0
 1092 309 1108 370 1116 438 c 1
 932 438 l 1
 907 264 824 129 625 129 c 0
 369 129 293 375 293 627 c 2
 293 831 l 2
 293 1048 354 1237 508 1303 c 0
 541 1317 582 1325 625 1325 c 0
EndSplineSet
EndChar

StartChar: D
Encoding: 68 68 36
Width: 1228
Flags: W
HStem: 0 152<492 704.811> 1305 151<492 694.774>
VStem: 950 187<427.104 674 780 1027.52>
LayerCount: 2
Fore
SplineSet
156 0 m 1
 492 0 l 1
 713 2 867 80 973 199 c 0
 1073 310 1137 465 1137 674 c 2
 1137 780 l 1
 1133 1145 956 1372 653 1438 c 0
 602 1448 549 1456 492 1456 c 2
 156 1456 l 1
 156 0 l 1
342 1305 m 1
 492 1305 l 1
 803 1301 946 1091 950 782 c 1
 950 674 l 1
 946 363 803 156 492 152 c 1
 342 152 l 1
 342 1305 l 1
EndSplineSet
EndChar

StartChar: E
Encoding: 69 69 37
Width: 1228
Flags: W
LayerCount: 2
Fore
SplineSet
975 674 m 1
 975 829 l 1
 367 829 l 1
 367 1298 l 1
 1067 1298 l 1
 1067 1456 l 1
 182 1456 l 1
 182 0 l 1
 1075 0 l 1
 1075 158 l 1
 367 158 l 1
 367 674 l 1
 975 674 l 1
EndSplineSet
EndChar

StartChar: F
Encoding: 70 70 38
Width: 1228
Flags: W
LayerCount: 2
Fore
SplineSet
983 643 m 1
 983 801 l 1
 379 801 l 1
 379 1298 l 1
 1085 1298 l 1
 1085 1456 l 1
 190 1456 l 1
 190 0 l 1
 379 0 l 1
 379 643 l 1
 983 643 l 1
EndSplineSet
EndChar

StartChar: G
Encoding: 71 71 39
Width: 1228
Flags: W
HStem: -20 157<484.601 862.885> 1319 158<473.241 794.57>
VStem: 100 187<394.263 643 811 1088.39> 936 180<198.235 569 1028 1155.59>
LayerCount: 2
Fore
SplineSet
627 1319 m 0
 820 1319 903 1192 932 1028 c 1
 1114 1028 l 1
 1096 1239 983 1383 813 1444 c 0
 756 1464 693 1477 625 1477 c 0
 365 1477 228 1316 156 1128 c 256
 121 1038 102 930 100 811 c 1
 100 643 l 1
 102 391 197 195 342 82 c 0
 418 23 516 -18 643 -20 c 0
 864 -22 1014 69 1116 190 c 1
 1112 725 l 1
 641 725 l 1
 641 569 l 1
 938 569 l 1
 936 242 l 1
 883 166 774 133 645 137 c 0
 459 139 367 273 322 416 c 256
 302 484 289 561 287 643 c 1
 287 813 l 2
 287 1036 354 1228 510 1296 c 0
 545 1310 584 1319 627 1319 c 0
EndSplineSet
EndChar

StartChar: H
Encoding: 72 72 40
Width: 1228
Flags: W
LayerCount: 2
Fore
SplineSet
1087 0 m 1
 1087 1456 l 1
 911 1456 l 1
 911 829 l 1
 315 829 l 1
 315 1456 l 1
 141 1456 l 1
 141 0 l 1
 315 0 l 1
 315 674 l 1
 911 674 l 1
 911 0 l 1
 1087 0 l 1
EndSplineSet
EndChar

StartChar: I
Encoding: 73 73 41
Width: 1228
Flags: W
LayerCount: 2
Fore
SplineSet
174 1456 m 1
 174 1294 l 1
 514 1294 l 1
 514 160 l 1
 174 160 l 1
 174 0 l 1
 1055 0 l 1
 1055 160 l 1
 705 160 l 1
 705 1294 l 1
 1055 1294 l 1
 1055 1456 l 1
 174 1456 l 1
EndSplineSet
EndChar

StartChar: J
Encoding: 74 74 42
Width: 1228
Flags: W
HStem: -20 157<413.803 724.873>
VStem: 98 189<270.757 422> 856 191<276.494 442>
LayerCount: 2
Fore
SplineSet
856 1456 m 1
 856 442 l 1
 852 305 788 207 690 162 c 0
 655 146 616 137 573 137 c 0
 436 137 352 209 311 307 c 0
 297 342 289 381 287 422 c 1
 98 422 l 1
 116 215 221 71 387 10 c 0
 442 -10 505 -20 573 -20 c 0
 794 -20 940 98 1008 256 c 0
 1033 313 1045 374 1047 442 c 1
 1047 1456 l 1
 856 1456 l 1
EndSplineSet
EndChar

StartChar: K
Encoding: 75 75 43
Width: 1228
Flags: W
LayerCount: 2
Fore
SplineSet
522 676 m 1
 963 0 l 1
 1188 0 l 1
 645 819 l 1
 1153 1456 l 1
 930 1456 l 1
 740 1218 550 981 360 745 c 1
 360 1456 l 1
 172 1456 l 1
 172 0 l 1
 360 0 l 1
 360 492 l 1
 522 676 l 1
EndSplineSet
EndChar

StartChar: L
Encoding: 76 76 44
Width: 1228
Flags: W
LayerCount: 2
Fore
SplineSet
383 158 m 1
 383 1456 l 1
 199 1456 l 1
 199 0 l 1
 1096 0 l 1
 1096 158 l 1
 383 158 l 1
EndSplineSet
EndChar

StartChar: M
Encoding: 77 77 45
Width: 1228
Flags: W
VStem: 147 181<582 1141.1> 147 166<607.896 1167> 920 180<582 1126.77> 936 164<645.232 1190>
LayerCount: 2
Fore
SplineSet
377 1456 m 1x10
 147 1456 l 1
 147 0 l 1x50
 328 0 l 1
 328 582 l 1x80
 313 1167 l 1
 559 406 l 1
 666 406 l 1
 936 1190 l 1x50
 920 582 l 1
 920 0 l 1x20
 1100 0 l 1
 1100 1456 l 1
 870 1456 l 1
 614 727 l 1
 377 1456 l 1x10
EndSplineSet
EndChar

StartChar: N
Encoding: 78 78 46
Width: 1228
Flags: W
HStem: 1067 20G<333.926 344.359>
LayerCount: 2
Fore
SplineSet
1085 0 m 1
 1085 1456 l 1
 899 1456 l 1
 897 371 l 1
 332 1456 l 1
 143 1456 l 1
 143 0 l 1
 330 0 l 1
 334 1087 l 1
 897 0 l 1
 1085 0 l 1
EndSplineSet
EndChar

StartChar: O
Encoding: 79 79 47
Width: 1228
Flags: W
HStem: -20 163<461.182 763.482> 1311 166<468.603 766.096>
VStem: 106 183<370.869 643 811 1087.29> 938 182<365.22 643 811 1077.46>
LayerCount: 2
Fore
SplineSet
1120 643 m 1
 1120 811 l 1
 1116 1118 1003 1362 776 1448 c 0
 727 1466 671 1477 612 1477 c 256
 356 1477 226 1310 160 1120 c 0
 127 1030 108 926 106 811 c 1
 106 643 l 1
 108 397 189 201 324 84 c 256
 394 23 487 -20 614 -20 c 256
 868 -20 1003 146 1069 334 c 256
 1100 424 1118 528 1120 643 c 1
938 811 m 1
 938 643 l 1
 934 426 881 236 729 166 c 0
 696 150 657 143 614 143 c 256
 432 143 356 281 317 424 c 0
 299 490 291 565 289 643 c 1
 289 811 l 1
 293 1026 348 1216 500 1288 c 0
 533 1304 569 1311 612 1311 c 0
 794 1311 872 1175 911 1032 c 0
 927 964 936 889 938 811 c 1
EndSplineSet
EndChar

StartChar: P
Encoding: 80 80 48
Width: 1228
Flags: W
HStem: 584 151<664 830.656> 1305 151<664 831.4>
VStem: 961 184<856.652 1177.03>
LayerCount: 2
Fore
SplineSet
377 584 m 1
 664 584 l 1
 879 586 1034 684 1106 834 c 0
 1131 887 1145 950 1145 1020 c 256
 1145 1241 1016 1370 848 1425 c 0
 789 1445 730 1454 664 1456 c 1
 190 1456 l 1
 190 0 l 1
 377 0 l 1
 377 584 l 1
377 735 m 1
 377 1305 l 1
 664 1305 l 1
 803 1303 895 1237 938 1137 c 0
 952 1102 961 1061 961 1018 c 256
 961 840 838 737 664 735 c 1
 377 735 l 1
EndSplineSet
EndChar

StartChar: Q
Encoding: 81 81 49
Width: 1228
Flags: W
HStem: -20 163<456.935 759.35> 1311 166<460.002 774.535>
VStem: 94 185<375.341 664 791 1081.41> 950 185<374.135 664 791 1078.55>
LayerCount: 2
Fore
SplineSet
913 84 m 1
 1054 203 1133 410 1135 664 c 1
 1135 791 l 1
 1131 1108 1015 1360 782 1448 c 0
 733 1466 675 1477 614 1477 c 256
 350 1477 217 1305 147 1110 c 256
 114 1018 96 908 94 791 c 1
 94 664 l 1
 98 349 218 98 449 8 c 0
 498 -10 553 -20 614 -20 c 0
 663 -20 711 -14 750 -2 c 1
 1036 -246 l 1
 1163 -125 l 1
 913 84 l 1
950 793 m 1
 950 664 l 1
 946 437 895 240 735 166 c 0
 700 150 659 143 614 143 c 0
 354 143 279 406 279 664 c 2
 279 793 l 2
 279 1018 340 1216 496 1288 c 0
 531 1304 569 1311 614 1311 c 0
 804 1311 885 1176 924 1024 c 0
 940 954 948 875 950 793 c 1
EndSplineSet
EndChar

StartChar: R
Encoding: 82 82 50
Width: 1228
Flags: W
HStem: 594 151<365 655> 1305 151<608 783.53>
VStem: 915 187<867.523 1183.31>
LayerCount: 2
Fore
SplineSet
655 594 m 1
 942 0 l 1
 1137 0 l 1
 1139 12 l 1
 829 635 l 1
 946 686 1038 766 1081 889 c 0
 1095 928 1102 973 1102 1020 c 0
 1102 1313 895 1450 608 1456 c 1
 180 1456 l 1
 180 0 l 1
 365 0 l 1
 365 594 l 1
 655 594 l 1
608 1305 m 1
 792 1303 915 1208 915 1022 c 0
 915 846 784 747 612 745 c 1
 365 745 l 1
 365 1305 l 1
 608 1305 l 1
EndSplineSet
EndChar

StartChar: S
Encoding: 83 83 51
Width: 1228
Flags: W
HStem: -20 157<457.584 827.83> 1319 158<464.888 801.642>
VStem: 119 188<290.463 420> 162 192<960.165 1218.98> 936 192<235.109 497.692 1036 1173.9>
LayerCount: 2
Fore
SplineSet
635 1319 m 0xd8
 819 1319 916 1200 936 1036 c 1
 1124 1036 l 1
 1120 1251 981 1385 817 1444 c 0
 758 1464 698 1477 635 1477 c 0
 432 1477 277 1380 203 1247 c 0
 176 1198 162 1142 162 1079 c 256xd8
 162 944 229 856 309 795 c 0
 424 707 574 663 721 610 c 0
 797 581 864 542 905 481 c 0
 925 450 936 414 936 369 c 0
 936 211 799 137 643 137 c 0
 448 137 330 248 307 420 c 1
 119 420 l 1xe8
 123 283 184 187 264 117 c 0
 350 39 487 -20 643 -20 c 0
 848 -20 1007 68 1085 199 c 0
 1114 248 1128 305 1128 371 c 0
 1128 508 1063 603 981 666 c 0
 897 736 787 782 672 817 c 0
 561 850 446 891 385 975 c 0
 365 1004 354 1038 354 1081 c 0
 354 1235 481 1319 635 1319 c 0xd8
EndSplineSet
EndChar

StartChar: T
Encoding: 84 84 52
Width: 1228
Flags: W
LayerCount: 2
Fore
SplineSet
1155 1298 m 1
 1155 1456 l 1
 76 1456 l 1
 76 1298 l 1
 526 1298 l 1
 526 0 l 1
 707 0 l 1
 707 1298 l 1
 1155 1298 l 1
EndSplineSet
EndChar

StartChar: U
Encoding: 85 85 53
Width: 1228
Flags: W
HStem: -20 157<457.643 763.329>
VStem: 139 183<287.799 469> 905 185<287.323 469>
LayerCount: 2
Fore
SplineSet
1087 1456 m 1
 909 1456 l 1
 905 469 l 1
 901 324 839 215 739 164 c 0
 702 146 661 137 614 137 c 256
 464 137 379 231 342 344 c 0
 330 385 322 426 322 469 c 2
 317 1456 l 1
 141 1456 l 1
 139 469 l 1
 141 244 262 88 422 18 c 0
 479 -7 544 -20 614 -20 c 0
 841 -20 989 115 1055 279 c 0
 1080 338 1090 401 1090 469 c 2
 1087 1456 l 1
EndSplineSet
EndChar

StartChar: V
Encoding: 86 86 54
Width: 1228
Flags: W
LayerCount: 2
Fore
SplineSet
530 0 m 1
 692 0 l 1
 1151 1456 l 1
 954 1456 l 1
 839 1071 725 684 610 299 c 1
 495 684 381 1071 268 1456 c 1
 72 1456 l 1
 530 0 l 1
EndSplineSet
EndChar

StartChar: W
Encoding: 87 87 55
Width: 1228
Flags: W
HStem: 1078 20G<597.5 659.5>
LayerCount: 2
Fore
SplineSet
250 0 m 1
 440 0 l 1
 503 365 566 733 629 1098 c 1
 690 731 754 367 815 0 c 1
 1006 0 l 1
 1182 1456 l 1
 1008 1456 l 1
 971 1102 934 747 897 393 c 1
 834 745 772 1102 709 1456 c 1
 547 1456 l 1
 484 1102 423 745 360 393 c 1
 323 747 287 1102 250 1456 c 1
 74 1456 l 1
 250 0 l 1
EndSplineSet
EndChar

StartChar: X
Encoding: 88 88 56
Width: 1228
Flags: W
LayerCount: 2
Fore
SplineSet
625 885 m 1
 315 1456 l 1
 98 1456 l 1
 520 733 l 1
 86 0 l 1
 305 0 l 1
 629 582 l 1
 950 0 l 1
 1167 0 l 1
 733 733 l 1
 1157 1456 l 1
 938 1456 l 1
 625 885 l 1
EndSplineSet
EndChar

StartChar: Y
Encoding: 89 89 57
Width: 1228
Flags: W
LayerCount: 2
Fore
SplineSet
602 725 m 1
 272 1456 l 1
 61 1456 l 1
 514 543 l 1
 516 0 l 1
 688 0 l 1
 692 543 l 1
 1145 1456 l 1
 936 1456 l 1
 602 725 l 1
EndSplineSet
EndChar

StartChar: Z
Encoding: 90 90 58
Width: 1228
Flags: W
LayerCount: 2
Fore
SplineSet
326 158 m 1
 1053 1315 l 1
 1051 1456 l 1
 127 1456 l 1
 127 1298 l 1
 840 1298 l 1
 115 143 l 1
 117 0 l 1
 1079 0 l 1
 1079 158 l 1
 326 158 l 1
EndSplineSet
EndChar

StartChar: bracketleft
Encoding: 91 91 59
Width: 1228
Flags: W
VStem: 426 395
LayerCount: 2
Fore
SplineSet
821 1511 m 1
 821 1663 l 1
 426 1663 l 1
 426 -311 l 1
 821 -311 l 1
 821 -160 l 1
 600 -160 l 1
 600 1511 l 1
 821 1511 l 1
EndSplineSet
EndChar

StartChar: backslash
Encoding: 92 92 60
Width: 1228
Flags: W
LayerCount: 2
Fore
SplineSet
231 1456 m 1
 840 -125 l 1
 1006 -125 l 1
 397 1456 l 1
 231 1456 l 1
EndSplineSet
EndChar

StartChar: bracketright
Encoding: 93 93 61
Width: 1228
Flags: W
VStem: 406 397
LayerCount: 2
Fore
SplineSet
406 1663 m 1
 406 1511 l 1
 627 1511 l 1
 627 -160 l 1
 406 -160 l 1
 406 -311 l 1
 803 -311 l 1
 803 1663 l 1
 406 1663 l 1
EndSplineSet
EndChar

StartChar: asciicircum
Encoding: 94 94 62
Width: 1228
Flags: W
LayerCount: 2
Fore
SplineSet
231 678 m 1
 403 678 l 1
 598 1163 l 1
 612 1231 l 1
 629 1163 l 1
 825 678 l 1
 997 678 l 1
 678 1456 l 1
 551 1456 l 1
 231 678 l 1
EndSplineSet
EndChar

StartChar: underscore
Encoding: 95 95 63
Width: 1228
Flags: W
HStem: -152 152
LayerCount: 2
Fore
SplineSet
1071 -152 m 1
 1071 0 l 1
 156 0 l 1
 156 -152 l 1
 1071 -152 l 1
EndSplineSet
EndChar

StartChar: grave
Encoding: 96 96 64
Width: 1228
Flags: W
HStem: 1214 267
LayerCount: 2
Fore
SplineSet
813 1214 m 1
 639 1481 l 1
 416 1481 l 1
 664 1214 l 1
 813 1214 l 1
EndSplineSet
EndChar

StartChar: a
Encoding: 97 97 65
Width: 1228
Flags: W
HStem: -20 161<404.812 725.922> 524 131<435.851 682> 952 150<435.693 768.643>
VStem: 156 186<203.246 445.885> 178 187<782 885.981> 854 186<243.454 305 739 864.591> 885 192<0 116.982>
LayerCount: 2
Fore
SplineSet
858 119 m 1xf4
 862 76 869 29 885 0 c 1
 1077 0 l 1
 1077 16 l 1xf2
 1054 71 1040 160 1040 236 c 2
 1040 739 l 2
 1040 987 856 1102 608 1102 c 0
 418 1102 272 1022 209 897 c 0
 189 858 178 821 178 782 c 1
 365 782 l 1xec
 365 868 430 915 500 938 c 0
 529 948 561 952 598 952 c 0
 743 952 854 884 854 741 c 2
 854 655 l 1
 653 655 l 2
 436 655 267 598 193 457 c 0
 170 412 156 358 156 299 c 0
 156 141 256 47 375 4 c 0
 422 -12 473 -20 530 -20 c 0
 677 -20 782 43 858 119 c 1xf4
854 305 m 1xf4
 807 211 698 141 557 141 c 256
 430 141 342 201 342 326 c 0
 342 492 510 524 682 524 c 2
 854 524 l 1
 854 305 l 1xf4
EndSplineSet
EndChar

StartChar: b
Encoding: 98 98 66
Width: 1228
Flags: W
HStem: -20 157<469.881 769.559> 944 158<466.502 772.246>
VStem: 174 186<236.199 846.453> 905 187<291.129 528 551 790.012>
LayerCount: 2
Fore
SplineSet
354 123 m 1
 420 39 516 -20 666 -20 c 0
 879 -20 994 112 1051 270 c 0
 1076 344 1092 430 1092 528 c 2
 1092 551 l 2
 1092 819 996 1017 793 1083 c 0
 754 1095 711 1102 664 1102 c 0
 519 1102 423 1049 360 967 c 1
 360 1536 l 1
 174 1536 l 1
 174 0 l 1
 344 0 l 1
 354 123 l 1
360 778 m 1
 403 870 481 944 616 944 c 0
 831 944 905 766 905 551 c 2
 905 528 l 2
 905 315 829 137 618 137 c 0
 481 137 405 213 360 305 c 1
 360 778 l 1
EndSplineSet
EndChar

StartChar: c
Encoding: 99 99 67
Width: 1228
Flags: W
HStem: -20 149<472.404 792.63> 950 152<480.9 791.184>
VStem: 143 187<294.984 520 561 777.008> 899 176<227.355 342 711 839.953>
LayerCount: 2
Fore
SplineSet
635 129 m 0
 416 129 330 305 330 520 c 2
 330 561 l 2
 330 727 386 852 492 915 c 0
 531 938 578 950 635 950 c 0
 756 950 840 887 879 803 c 0
 893 774 899 744 899 711 c 1
 1075 711 l 1
 1075 901 952 1018 811 1071 c 0
 758 1091 698 1102 635 1102 c 0
 383 1102 235 961 174 768 c 0
 154 702 143 633 143 561 c 2
 143 520 l 2
 143 276 252 105 420 25 c 0
 481 -4 553 -20 635 -20 c 0
 760 -20 866 29 940 88 c 0
 1008 143 1073 231 1075 342 c 1
 899 342 l 1
 897 238 815 172 733 145 c 0
 702 135 668 129 635 129 c 0
EndSplineSet
EndChar

StartChar: d
Encoding: 100 100 68
Width: 1228
Flags: W
HStem: -20 157<460.539 764.468> 944 158<465.055 763.945>
VStem: 139 185<296.182 528 551 775.5> 866 187<228.008 857.054>
LayerCount: 2
Fore
SplineSet
866 975 m 1
 800 1053 708 1102 571 1102 c 0
 426 1102 324 1032 256 946 c 0
 182 852 139 717 139 551 c 2
 139 528 l 2
 139 288 235 107 393 23 c 0
 446 -6 503 -20 569 -20 c 0
 712 -20 806 33 874 115 c 1
 883 0 l 1
 1053 0 l 1
 1053 1536 l 1
 866 1536 l 1
 866 975 l 1
866 293 m 1
 821 205 747 137 616 137 c 0
 405 137 324 317 324 528 c 2
 324 551 l 2
 324 719 379 852 485 913 c 0
 522 933 567 944 618 944 c 0
 745 944 821 879 866 795 c 1
 866 293 l 1
EndSplineSet
EndChar

StartChar: e
Encoding: 101 101 69
Width: 1228
Flags: W
HStem: -20 151<494.41 846.636> 950 152<478.083 782.8>
VStem: 135 184<324.816 487 639 768.893> 907 187<639 811.82>
LayerCount: 2
Fore
SplineSet
967 276 m 1
 904 194 801 131 662 131 c 0
 502 131 399 227 352 342 c 0
 336 383 323 428 319 481 c 1
 319 487 l 1
 1094 487 l 1
 1094 571 l 2
 1094 813 999 983 831 1061 c 0
 772 1088 707 1102 629 1102 c 0
 484 1102 367 1034 289 954 c 0
 199 862 135 725 135 545 c 2
 135 504 l 2
 135 258 264 90 442 18 c 0
 505 -9 575 -20 651 -20 c 0
 757 -20 846 0 918 43 c 0
 990 86 1042 133 1079 188 c 1
 967 276 l 1
629 950 m 0
 774 950 852 865 889 756 c 0
 901 717 907 682 907 649 c 2
 907 639 l 1
 326 639 l 1
 346 776 411 885 522 930 c 0
 555 944 592 950 629 950 c 0
EndSplineSet
EndChar

StartChar: f
Encoding: 102 102 70
Width: 1228
Flags: W
HStem: 1421 158<726.909 1113.16>
VStem: 451 186<1157 1327.93>
LayerCount: 2
Fore
SplineSet
1130 1540 m 1
 1052 1560 970 1579 874 1579 c 0
 669 1579 538 1491 481 1341 c 0
 461 1288 451 1227 451 1157 c 2
 451 1081 l 1
 152 1081 l 1
 152 938 l 1
 451 938 l 1
 451 0 l 1
 637 0 l 1
 637 938 l 1
 1053 938 l 1
 1053 1081 l 1
 637 1081 l 1
 637 1157 l 2
 637 1333 721 1421 897 1421 c 0
 975 1421 1053 1406 1110 1386 c 1
 1130 1540 l 1
EndSplineSet
EndChar

StartChar: g
Encoding: 103 103 71
Width: 1228
Flags: W
HStem: -426 152<407.953 753.326> -20 157<461.475 765.874> 944 158<464.389 767.1>
VStem: 139 187<296.182 528 551 781.685> 868 185<-157.984 23 229.66 295 791 854.61>
LayerCount: 2
Fore
SplineSet
877 965 m 1
 811 1047 716 1102 571 1102 c 0
 424 1102 324 1034 256 946 c 256
 184 852 139 717 139 551 c 2
 139 528 l 2
 139 288 233 107 391 23 c 0
 444 -6 503 -20 569 -20 c 0
 710 -20 802 30 868 106 c 1
 868 14 l 2
 868 -170 764 -274 582 -274 c 0
 443 -274 357 -207 291 -127 c 1
 195 -240 l 1
 258 -332 371 -393 500 -416 c 0
 537 -422 567 -426 596 -426 c 0
 815 -426 957 -326 1020 -168 c 0
 1043 -113 1053 -49 1053 23 c 2
 1053 1081 l 1
 885 1081 l 1
 877 965 l 1
868 295 m 1
 823 207 749 137 616 137 c 0
 405 137 326 317 326 528 c 2
 326 551 l 2
 326 719 376 850 485 913 c 0
 522 933 567 944 618 944 c 0
 747 944 823 877 868 791 c 1
 868 295 l 1
EndSplineSet
EndChar

StartChar: h
Encoding: 104 104 72
Width: 1228
Flags: W
HStem: 944 158<505.461 792.546>
VStem: 883 184<682 858.156>
LayerCount: 2
Fore
SplineSet
692 1102 m 0
 530 1100 426 1022 358 922 c 1
 358 1536 l 1
 174 1536 l 1
 174 0 l 1
 358 0 l 1
 358 786 l 1
 411 872 504 944 639 944 c 0
 807 946 883 850 883 682 c 2
 883 0 l 1
 1067 0 l 1
 1067 682 l 2
 1067 944 950 1102 692 1102 c 0
EndSplineSet
EndChar

StartChar: i
Encoding: 105 105 73
Width: 1228
Flags: W
HStem: 1262 213<563.348 750.809>
VStem: 547 221<1278.8 1457.07>
LayerCount: 2
Fore
SplineSet
203 1081 m 1
 203 922 l 1
 571 922 l 1
 567 0 l 1
 754 0 l 1
 756 1081 l 1
 203 1081 l 1
657 1475 m 256
 587 1475 547 1434 547 1366 c 0
 547 1300 587 1262 657 1262 c 0
 725 1262 768 1300 768 1366 c 0
 768 1434 727 1475 657 1475 c 256
EndSplineSet
EndChar

StartChar: j
Encoding: 106 106 74
Width: 1228
Flags: W
HStem: -436 155<222.894 565.64> 1262 213<652.037 837.27>
VStem: 635 221<1278.8 1456.51> 659 187<-185.139 -6>
LayerCount: 2
Fore
SplineSet
422 -436 m 0xd0
 694 -436 846 -280 846 -6 c 2
 846 1081 l 1
 299 1081 l 1
 299 922 l 1
 659 922 l 1
 659 -6 l 2
 659 -180 582 -281 410 -281 c 0
 349 -281 276 -278 223 -268 c 1
 211 -420 l 1
 277 -430 344 -436 422 -436 c 0xd0
743 1475 m 256
 673 1475 635 1432 635 1366 c 256
 635 1300 673 1262 743 1262 c 256
 813 1262 856 1300 856 1366 c 256xe0
 856 1432 813 1475 743 1475 c 256
EndSplineSet
EndChar

StartChar: k
Encoding: 107 107 75
Width: 1228
Flags: W
LayerCount: 2
Fore
SplineSet
498 506 m 1
 895 0 l 1
 1130 0 l 1
 625 631 l 1
 1063 1081 l 1
 838 1081 l 1
 678 919 514 764 362 596 c 1
 362 1536 l 1
 176 1536 l 1
 176 0 l 1
 362 0 l 1
 362 375 l 1
 498 506 l 1
EndSplineSet
EndChar

StartChar: l
Encoding: 108 108 76
Width: 1228
Flags: W
LayerCount: 2
Fore
SplineSet
203 1536 m 1
 203 1374 l 1
 571 1374 l 1
 571 160 l 1
 203 160 l 1
 203 0 l 1
 1110 0 l 1
 1110 160 l 1
 756 160 l 1
 756 1536 l 1
 203 1536 l 1
EndSplineSet
EndChar

StartChar: m
Encoding: 109 109 77
Width: 1228
Flags: W
HStem: 944 158<331.895 504.007 746.42 939.989>
VStem: 526 176<811 915.794> 963 176<809 923.105>
LayerCount: 2
Fore
SplineSet
479 1102 m 0
 373 1100 305 1053 264 981 c 1
 258 1081 l 1
 92 1081 l 1
 92 0 l 1
 268 0 l 1
 268 860 l 1
 288 913 332 944 406 944 c 0
 492 944 526 897 526 811 c 2
 526 0 l 1
 702 0 l 1
 702 829 l 1
 710 901 756 944 838 944 c 0
 926 944 963 899 963 811 c 2
 963 0 l 1
 1139 0 l 1
 1139 809 l 2
 1139 987 1067 1102 891 1102 c 0
 787 1100 721 1053 680 985 c 1
 647 1059 585 1102 479 1102 c 0
EndSplineSet
EndChar

StartChar: n
Encoding: 110 110 78
Width: 1228
Flags: W
HStem: 944 158<505.953 793.818>
VStem: 174 184<776 841.062> 881 184<682 860.688>
LayerCount: 2
Fore
SplineSet
690 1102 m 0
 528 1100 422 1020 352 922 c 1
 340 1081 l 1
 174 1081 l 1
 174 0 l 1
 358 0 l 1
 358 776 l 1
 407 868 496 944 635 944 c 0
 807 944 881 856 881 682 c 2
 881 0 l 1
 1065 0 l 1
 1065 686 l 2
 1065 946 946 1102 690 1102 c 0
EndSplineSet
EndChar

StartChar: o
Encoding: 111 111 79
Width: 1228
Flags: W
HStem: -20 149<458.719 762.398> 950 152<461.697 767.588>
VStem: 123 184<306.838 528 551 767.98> 922 184<311.02 528 551 764.374>
LayerCount: 2
Fore
SplineSet
123 551 m 2
 123 528 l 2
 123 278 234 103 408 23 c 0
 469 -6 538 -20 614 -20 c 0
 860 -20 1008 125 1071 311 c 0
 1094 377 1106 450 1106 528 c 2
 1106 551 l 2
 1106 803 993 979 819 1059 c 0
 758 1088 688 1102 612 1102 c 0
 366 1102 219 954 156 768 c 0
 133 700 123 629 123 551 c 2
307 528 m 2
 307 551 l 2
 307 721 368 855 479 918 c 0
 518 938 561 950 612 950 c 256
 778 950 864 835 901 702 c 0
 913 653 922 604 922 551 c 2
 922 528 l 2
 922 356 859 223 748 162 c 0
 709 142 665 129 614 129 c 0
 448 129 361 244 326 377 c 0
 314 426 307 475 307 528 c 2
EndSplineSet
EndChar

StartChar: p
Encoding: 112 112 80
Width: 1228
Flags: W
HStem: -20 151<463.966 752.454> 944 158<461.299 760.768>
VStem: 172 186<215.503 857.846> 901 186<300.114 528 551 779.649>
LayerCount: 2
Fore
SplineSet
659 1102 m 0
 514 1102 416 1047 350 965 c 1
 342 1081 l 1
 172 1081 l 1
 172 -416 l 1
 358 -416 l 1
 358 104 l 1
 426 30 521 -20 662 -20 c 0
 887 -20 1010 133 1059 313 c 0
 1077 381 1087 450 1087 528 c 2
 1087 551 l 2
 1087 795 1006 979 844 1061 c 0
 791 1088 729 1102 659 1102 c 0
358 797 m 1
 403 879 477 944 604 944 c 0
 817 944 901 764 901 551 c 2
 901 528 l 2
 901 358 848 227 739 164 c 0
 702 144 657 131 606 131 c 0
 479 131 405 194 358 276 c 1
 358 797 l 1
EndSplineSet
EndChar

StartChar: q
Encoding: 113 113 81
Width: 1228
Flags: W
HStem: -20 151<465.709 768.137> 950 152<468.979 772.047>
VStem: 139 187<294.016 528 551 780.457> 866 187<214.711 867.082>
LayerCount: 2
Fore
SplineSet
874 975 m 1
 808 1051 717 1102 578 1102 c 0
 349 1102 221 954 170 772 c 0
 150 704 139 631 139 551 c 2
 139 528 l 2
 139 286 231 107 391 23 c 0
 444 -6 507 -20 575 -20 c 0
 710 -20 798 28 866 98 c 1
 866 -416 l 1
 1053 -416 l 1
 1053 1081 l 1
 883 1081 l 1
 874 975 l 1
866 274 m 1
 817 194 748 131 621 131 c 0
 410 131 326 317 326 528 c 2
 326 551 l 2
 326 721 380 855 489 918 c 0
 526 941 572 950 623 950 c 0
 746 950 819 887 866 809 c 1
 866 274 l 1
EndSplineSet
EndChar

StartChar: r
Encoding: 114 114 82
Width: 1228
Flags: W
HStem: 918 184<685.122 1050.94>
VStem: 330 184<694 780.788>
LayerCount: 2
Fore
SplineSet
1073 1075 m 1
 1034 1091 942 1102 883 1102 c 0
 709 1102 592 1015 514 909 c 1
 512 938 l 1
 506 1081 l 1
 330 1081 l 1
 330 0 l 1
 514 0 l 1
 514 694 l 1
 563 829 662 918 844 918 c 0
 922 918 981 909 1049 895 c 1
 1073 1075 l 1
EndSplineSet
EndChar

StartChar: s
Encoding: 115 115 83
Width: 1228
Flags: W
HStem: -20 149<455.957 827.465> 950 152<460.162 794.169>
VStem: 174 186<219.615 334> 213 184<696.029 892.083> 893 184<186.801 382.685 764 853.039>
LayerCount: 2
Fore
SplineSet
639 129 m 0xd8
 489 129 370 193 360 334 c 1
 174 334 l 1xe8
 174 225 231 141 299 88 c 0
 379 22 494 -20 639 -20 c 0
 829 -20 976 47 1044 170 c 0
 1064 209 1077 252 1077 299 c 0
 1077 459 959 530 834 573 c 0
 781 591 721 609 655 623 c 0
 571 639 502 651 451 688 c 0
 416 711 397 740 397 791 c 0
 397 906 516 950 635 950 c 0
 746 950 825 903 864 831 c 0
 876 808 883 787 883 764 c 1
 1067 764 l 1
 1067 873 1013 951 950 1004 c 256
 876 1065 768 1102 635 1102 c 0
 451 1102 307 1028 244 909 c 0
 224 870 213 827 213 784 c 0
 213 684 265 623 328 580 c 0
 406 525 512 492 627 469 c 0
 713 453 783 432 836 395 c 256
 871 370 893 340 893 287 c 0
 893 166 762 129 639 129 c 0xd8
EndSplineSet
EndChar

StartChar: t
Encoding: 116 116 84
Width: 1228
Flags: W
HStem: -20 157<674.891 1035.8>
VStem: 426 186<202.52 350>
LayerCount: 2
Fore
SplineSet
813 137 m 0
 676 137 612 211 612 350 c 2
 612 938 l 1
 1024 938 l 1
 1024 1081 l 1
 612 1081 l 1
 612 1343 l 1
 426 1343 l 1
 426 1081 l 1
 141 1081 l 1
 141 938 l 1
 426 938 l 1
 426 350 l 2
 426 117 541 -20 768 -20 c 0
 879 -20 995 -4 1065 39 c 1
 1038 170 l 1
 972 154 893 137 813 137 c 0
EndSplineSet
EndChar

StartChar: u
Encoding: 117 117 85
Width: 1228
Flags: W
HStem: -20 155<441.282 738.342>
VStem: 180 185<220.225 438> 868 187<234.562 305>
LayerCount: 2
Fore
SplineSet
555 -20 m 0
 709 -20 811 54 877 150 c 1
 887 0 l 1
 1055 0 l 1
 1055 1081 l 1
 868 1081 l 1
 868 305 l 1
 823 201 734 135 584 135 c 0
 408 135 365 254 365 436 c 2
 365 1081 l 1
 180 1081 l 1
 180 438 l 2
 180 164 287 -20 555 -20 c 0
EndSplineSet
EndChar

StartChar: v
Encoding: 118 118 86
Width: 1228
Flags: W
LayerCount: 2
Fore
SplineSet
543 0 m 1
 684 0 l 1
 1124 1081 l 1
 936 1081 l 1
 633 266 l 1
 614 199 l 1
 598 266 l 1
 289 1081 l 1
 98 1081 l 1
 543 0 l 1
EndSplineSet
EndChar

StartChar: w
Encoding: 119 119 87
Width: 1228
Flags: W
VStem: 47 166<1014.2 1081> 1026 166<1013.91 1081>
LayerCount: 2
Fore
SplineSet
279 0 m 1
 424 0 l 1
 592 664 l 1
 618 831 l 1
 645 664 l 1
 815 0 l 1
 961 0 l 1
 1192 1081 l 1
 1026 1081 l 1
 907 391 l 1
 881 221 l 1
 852 391 l 1
 680 1081 l 1
 559 1081 l 1
 387 391 l 1
 360 238 l 1
 319 529 262 798 213 1081 c 1
 47 1081 l 1
 279 0 l 1
EndSplineSet
EndChar

StartChar: x
Encoding: 120 120 88
Width: 1228
Flags: W
LayerCount: 2
Fore
SplineSet
621 682 m 1
 336 1081 l 1
 121 1081 l 1
 524 547 l 1
 111 0 l 1
 326 0 l 1
 625 412 l 1
 924 0 l 1
 1139 0 l 1
 725 547 l 1
 1126 1081 l 1
 909 1081 l 1
 621 682 l 1
EndSplineSet
EndChar

StartChar: y
Encoding: 121 121 89
Width: 1228
Flags: W
HStem: -436 162<173.975 364.216>
LayerCount: 2
Fore
SplineSet
147 -422 m 1
 170 -426 229 -436 260 -436 c 0
 450 -436 549 -297 608 -168 c 1
 1157 1081 l 1
 950 1081 l 1
 839 805 732 530 621 254 c 1
 571 385 l 1
 274 1081 l 1
 68 1081 l 1
 535 51 l 1
 461 -92 l 2
 430 -151 389 -217 334 -254 c 0
 314 -268 289 -274 264 -274 c 0
 239 -274 203 -272 176 -270 c 1
 147 -422 l 1
EndSplineSet
EndChar

StartChar: z
Encoding: 122 122 90
Width: 1228
Flags: W
LayerCount: 2
Fore
SplineSet
395 152 m 1
 1049 950 l 1
 1049 1081 l 1
 170 1081 l 1
 170 930 l 1
 807 930 l 1
 160 135 l 1
 160 0 l 1
 1085 0 l 1
 1085 152 l 1
 395 152 l 1
EndSplineSet
EndChar

StartChar: braceleft
Encoding: 123 123 91
Width: 1228
Flags: W
HStem: -367 115<885.575 979> 543 145<324 504.418> 1483 114<874.45 979>
VStem: 600 186<-121.98 98 268 447.256 781.858 963 1133 1358.26>
LayerCount: 2
Fore
SplineSet
324 543 m 1
 512 541 600 461 600 268 c 2
 600 98 l 2
 600 -95 686 -248 811 -322 c 0
 858 -351 916 -365 979 -367 c 1
 999 -252 l 1
 833 -246 786 -72 786 98 c 2
 786 268 l 1
 784 446 696 559 559 614 c 1
 696 669 786 783 786 963 c 2
 786 1133 l 2
 786 1319 817 1479 999 1483 c 1
 979 1597 l 1
 776 1591 666 1464 623 1298 c 0
 609 1241 600 1186 600 1133 c 2
 600 963 l 2
 600 770 514 688 324 688 c 1
 324 543 l 1
EndSplineSet
EndChar

StartChar: bar
Encoding: 124 124 92
Width: 1228
Flags: W
VStem: 541 147
LayerCount: 2
Fore
SplineSet
688 -397 m 1
 688 1456 l 1
 541 1456 l 1
 541 -397 l 1
 688 -397 l 1
EndSplineSet
EndChar

StartChar: braceright
Encoding: 125 125 93
Width: 1228
Flags: W
HStem: -367 115<344 432.928> 543 145<817.86 999> 1483 114<344 449.309>
VStem: 537 184<-125.059 98 268 443.225 785.689 963 1133 1364.44>
LayerCount: 2
Fore
SplineSet
762 614 m 1
 627 559 537 454 537 268 c 2
 537 98 l 2
 537 -39 504 -156 426 -217 c 0
 399 -237 365 -250 324 -252 c 1
 344 -367 l 1
 481 -365 572 -295 631 -211 c 0
 684 -133 721 -25 721 98 c 2
 721 268 l 2
 721 458 811 541 999 543 c 1
 999 688 l 1
 809 688 721 773 721 963 c 2
 721 1133 l 2
 721 1332 643 1484 510 1556 c 0
 463 1581 407 1595 344 1597 c 1
 324 1483 l 1
 506 1479 537 1317 537 1133 c 2
 537 963 l 2
 537 779 627 667 762 614 c 1
EndSplineSet
EndChar

StartChar: asciitilde
Encoding: 126 126 94
Width: 1228
Flags: W
HStem: 401 164<740.592 984.141> 639 164<240.728 488.964>
VStem: 47 135<473 582.127> 1047 133<630.216 739>
LayerCount: 2
Fore
SplineSet
1180 739 m 1
 1047 758 l 1
 1047 672 1001 611 944 582 c 0
 924 572 902 565 879 565 c 0
 785 563 723 619 670 664 c 0
 586 734 498 803 348 803 c 0
 201 803 111 707 70 598 c 0
 56 557 47 516 47 473 c 1
 182 457 l 1
 182 541 226 598 283 625 c 0
 303 635 325 639 348 639 c 0
 444 639 502 588 559 543 c 0
 643 471 729 401 879 401 c 0
 1026 401 1116 501 1157 612 c 0
 1171 653 1180 696 1180 739 c 1
EndSplineSet
EndChar

StartChar: exclamdown
Encoding: 161 161 96
Width: 1228
Flags: W
HStem: 881 223<518.578 706.061>
VStem: 498 229<900.588 1082.47>
LayerCount: 2
Fore
SplineSet
522 610 m 1
 522 -373 l 1
 707 -373 l 1
 707 610 l 1
 522 610 l 1
612 881 m 0
 682 881 727 923 727 989 c 0
 727 1057 682 1104 612 1104 c 0
 540 1104 498 1057 498 989 c 0
 498 923 542 881 612 881 c 0
EndSplineSet
EndChar

StartChar: cent
Encoding: 162 162 97
Width: 1228
Flags: W
HStem: -246 375<537.626 717.772> 950 369<533.431 717.878>
VStem: 147 187<294.795 520 561 782.2> 903 176<224.498 342 711 840.207>
LayerCount: 2
Fore
SplineSet
639 129 m 0
 420 129 334 305 334 520 c 2
 334 561 l 2
 334 727 388 852 494 915 c 0
 533 938 582 950 639 950 c 0
 760 950 844 887 883 803 c 0
 897 774 903 744 903 711 c 1
 1079 711 l 1
 1079 881 979 990 864 1049 c 0
 821 1072 772 1088 719 1096 c 1
 719 1319 l 1
 532 1319 l 1
 532 1092 l 1
 339 1055 221 923 172 745 c 0
 156 686 147 624 147 561 c 2
 147 520 l 2
 147 305 234 147 365 57 c 0
 414 24 469 2 532 -10 c 1
 532 -246 l 1
 719 -246 l 1
 719 -12 l 1
 871 13 990 100 1049 219 c 0
 1069 258 1079 299 1079 342 c 1
 903 342 l 1
 901 238 819 172 737 145 c 0
 706 135 672 129 639 129 c 0
EndSplineSet
EndChar

StartChar: sterling
Encoding: 163 163 98
Width: 1228
Flags: W
HStem: 1325 152<556.067 846.435>
VStem: 272 187<1038 1222.98> 287 184<194.928 399> 932 186<1090 1240.1>
LayerCount: 2
Fore
SplineSet
410 152 m 1xb0
 451 211 471 301 471 399 c 1xb0
 463 627 l 1
 778 627 l 1
 778 778 l 1
 459 778 l 1
 451 1038 l 1
 451 1169 504 1264 596 1305 c 0
 625 1317 655 1325 690 1325 c 0
 840 1325 932 1242 932 1090 c 1
 1118 1090 l 1
 1118 1280 1022 1397 881 1448 c 0
 830 1466 772 1477 709 1477 c 256
 498 1477 360 1375 297 1223 c 0
 274 1170 264 1106 264 1038 c 1
 272 778 l 1xd0
 113 778 l 1
 113 627 l 1
 279 627 l 1
 287 399 l 1
 287 315 271 237 238 186 c 0
 226 168 211 156 193 152 c 1
 117 152 l 1
 117 0 l 1
 1147 0 l 1
 1149 152 l 1
 410 152 l 1xb0
EndSplineSet
EndChar

StartChar: currency
Encoding: 164 164 99
Width: 1228
Flags: W
HStem: -20 172<477.696 790.909> 879 170<479.902 793.218>
VStem: 137 172<331.253 701.459> 956 174<326.483 699.063>
LayerCount: 2
Fore
SplineSet
635 -20 m 256
 762 -20 858 25 932 84 c 1
 1038 -27 l 1
 1169 109 l 1
 1055 227 l 1
 1098 303 1130 399 1130 514 c 0
 1130 637 1096 737 1047 815 c 1
 1169 944 l 1
 1038 1079 l 1
 918 954 l 1
 846 1007 754 1049 635 1049 c 256
 516 1049 422 1009 350 956 c 1
 233 1079 l 1
 102 944 l 1
 223 819 l 1
 172 739 137 639 137 514 c 0
 137 397 168 301 215 223 c 1
 102 109 l 1
 233 -27 l 1
 338 82 l 1
 412 25 510 -20 635 -20 c 256
309 514 m 256
 309 676 395 797 506 850 c 0
 545 870 590 879 635 879 c 256
 793 879 889 772 932 655 c 0
 948 612 956 563 956 514 c 256
 956 350 873 235 762 180 c 0
 723 160 680 152 635 152 c 256
 533 152 454 201 403 260 c 0
 350 319 309 408 309 514 c 256
EndSplineSet
EndChar

StartChar: yen
Encoding: 165 165 100
Width: 1228
Flags: W
LayerCount: 2
Fore
SplineSet
518 0 m 1
 702 0 l 1
 702 580 l 5
 1092 580 l 5
 1092 735 l 1
 774 735 l 1
 1194 1456 l 1
 983 1456 l 1
 860 1231 737 1005 614 780 c 1
 612 780 l 1
 491 1007 369 1231 246 1456 c 1
 33 1456 l 1
 455 735 l 1
 137 735 l 1
 137 580 l 5
 516 580 l 5
 518 0 l 1
EndSplineSet
EndChar

StartChar: brokenbar
Encoding: 166 166 101
Width: 1228
Flags: W
VStem: 512 184
LayerCount: 2
Fore
SplineSet
696 481 m 5
 696 1239 l 5
 512 1239 l 5
 512 481 l 5
 696 481 l 5
EndSplineSet
EndChar

StartChar: section
Encoding: 167 167 102
Width: 2332
Flags: W
HStem: -496 154<1516.38 1908.61> 0 209<94 999> 1325 152<1529.34 1908.5>
VStem: 1196 186<-214.732 -63 425.939 679.435> 1241 186<987.734 1235.08> 2015 185<-249.301 -13.7161> 2038 184<1044 1192.76> 2060 185<307.007 545.186>
LayerCount: 2
Fore
SplineSet
94 209 m 5xe0
 999 209 l 1
 999 0 l 1
 94 0 l 1
 94 209 l 5xe0
2058 156 m 1
 2160 203 2245 285 2245 430 c 0xe1
 2245 819 1814 805 1552 932 c 0
 1478 967 1427 1010 1427 1112 c 0
 1427 1266 1571 1325 1731 1325 c 0
 1876 1325 1976 1259 2017 1155 c 0
 2031 1120 2038 1083 2038 1044 c 1
 2222 1044 l 1
 2222 1337 2024 1477 1731 1477 c 0
 1516 1477 1352 1403 1278 1262 c 0
 1255 1217 1241 1165 1241 1110 c 0xea
 1241 969 1296 886 1378 825 c 1
 1278 776 1196 696 1196 551 c 0
 1196 336 1331 245 1487 182 c 0
 1630 125 1818 96 1935 16 c 0
 1984 -17 2015 -55 2015 -129 c 0
 2015 -244 1929 -301 1837 -328 c 0
 1800 -338 1759 -342 1712 -342 c 0
 1567 -342 1460 -289 1407 -193 c 0
 1387 -158 1376 -112 1376 -61 c 1
 1192 -63 l 1
 1192 -364 1415 -496 1712 -496 c 0
 1927 -496 2091 -426 2165 -285 c 0
 2188 -240 2200 -186 2200 -127 c 0xf4
 2200 14 2142 99 2058 156 c 1
1538 741 m 1
 1681 686 1859 662 1976 580 c 0
 2025 545 2060 504 2060 428 c 0
 2058 319 1986 263 1896 238 c 1
 1783 281 1642 307 1536 354 c 0
 1479 379 1440 407 1417 436 c 0
 1394 465 1382 504 1382 553 c 0xf1
 1382 664 1448 718 1538 741 c 1
EndSplineSet
EndChar

StartChar: uni30FC
Encoding: 12540 12540 103
Width: 2048
VWidth: 0
Flags: W
HStem: 711 186<37 1999>
LayerCount: 2
Fore
SplineSet
37 897 m 5
 1999 897 l 5
 1999 711 l 5
 37 711 l 5
 37 897 l 5
EndSplineSet
EndChar

StartChar: uni25AE
Encoding: 9646 9646 104
Width: 2048
VWidth: 0
Flags: W
HStem: 0 21G<354 1368>
VStem: 354 1014<0 1640>
LayerCount: 2
Fore
SplineSet
354 1640 m 1
 1368 1640 l 1
 1368 0 l 1
 354 0 l 1
 354 1640 l 1
EndSplineSet
EndChar
